<svg xmlns="http://www.w3.org/2000/svg" width="72.597" height="72.597" viewBox="0 0 72.597 72.597"><defs><style>.a{fill:#fff;}</style></defs><path class="a" d="M100.614,87.132a29.35,29.35,0,0,1-9.208-1.464,3.946,3.946,0,0,0-4.007.848l-5.828,4.4A32.552,32.552,0,0,1,67.085,76.433l4.282-5.69a4.089,4.089,0,0,0,1-4.134,29.336,29.336,0,0,1-1.475-9.224,4.058,4.058,0,0,0-4.053-4.053H57.386a4.058,4.058,0,0,0-4.053,4.053,47.337,47.337,0,0,0,47.281,47.281,4.058,4.058,0,0,0,4.053-4.053V91.185A4.058,4.058,0,0,0,100.614,87.132Z" transform="translate(148.021 36.299) rotate(135)"/></svg>