<svg xmlns="http://www.w3.org/2000/svg" width="46.759" height="34.339" viewBox="0 0 46.759 34.339"><defs><style>.a{fill:#bc9b56;}</style></defs><g transform="translate(0 -68)"><path class="a" d="M41.279,102.339H5.48A5.486,5.486,0,0,1,0,96.859V73.48A5.486,5.486,0,0,1,5.48,68h35.8a5.486,5.486,0,0,1,5.48,5.48V96.859A5.486,5.486,0,0,1,41.279,102.339ZM5.48,71.653A1.829,1.829,0,0,0,3.653,73.48V96.859A1.829,1.829,0,0,0,5.48,98.686h35.8a1.829,1.829,0,0,0,1.827-1.827V73.48a1.829,1.829,0,0,0-1.827-1.827Z"/><path class="a" d="M41.119,111.932l-21.6-16.064,2.18-2.931,19.416,14.442L60.535,92.937l2.18,2.931Z" transform="translate(-17.739 -22.66)"/></g></svg>