<svg xmlns="http://www.w3.org/2000/svg" width="37" height="37" viewBox="0 0 37 37"><defs><style>.a{fill:#bc9b56;}</style></defs><path class="a" d="M87.412,77.695a21.155,21.155,0,0,1-6.637-1.055,2.844,2.844,0,0,0-2.888.611l-4.2,3.172a23.462,23.462,0,0,1-10.442-10.44l3.087-4.1a2.947,2.947,0,0,0,.723-2.979,21.144,21.144,0,0,1-1.063-6.648,2.925,2.925,0,0,0-2.921-2.921H56.254a2.925,2.925,0,0,0-2.921,2.921A34.119,34.119,0,0,0,87.412,90.333a2.925,2.925,0,0,0,2.921-2.921v-6.8A2.925,2.925,0,0,0,87.412,77.695Z" transform="translate(-53.333 -53.333)"/></svg>